<?xml version="1.0" standalone="no"?>
<!DOCTYPE svg PUBLIC "-//W3C//DTD SVG 20010904//EN"
 "http://www.w3.org/TR/2001/REC-SVG-20010904/DTD/svg10.dtd">
<svg version="1.0" xmlns="http://www.w3.org/2000/svg"
 width="260.000000pt" height="260.000000pt" viewBox="0 0 260.000000 260.000000"
 preserveAspectRatio="xMidYMid meet">
<metadata>
Created by potrace 1.14, written by Peter Selinger 2001-2017
</metadata>
<g transform="translate(0.000000,260.000000) scale(0.100000,-0.100000)"
fill="#000000" stroke="none">
<path d="M1214 2401 c7 -10 3 -12 -14 -6 -17 5 -21 4 -15 -6 6 -9 3 -11 -10
-5 -15 5 -16 4 -5 -9 11 -14 7 -19 -12 -16 -5 0 -8 -4 -8 -10 0 -6 -7 -8 -16
-5 -14 6 -15 4 -4 -9 7 -9 9 -15 4 -14 -19 3 -29 -2 -17 -9 9 -6 6 -11 -8 -21
-15 -9 -19 -9 -14 0 5 7 3 10 -6 7 -8 -3 -14 -13 -14 -24 0 -12 -7 -18 -18
-18 -9 1 -14 -2 -11 -7 3 -5 -2 -9 -11 -9 -9 0 -13 -4 -10 -10 3 -5 1 -10 -6
-10 -7 0 -10 -3 -6 -6 3 -3 0 -12 -6 -19 -9 -10 -15 -10 -26 -1 -12 8 -13 8
-7 -1 5 -9 1 -13 -11 -13 -14 0 -15 -2 -4 -9 8 -5 11 -16 8 -24 -3 -9 -1 -18
6 -21 7 -2 3 -5 -8 -5 -15 -1 -17 -4 -7 -10 18 -11 24 -64 6 -57 -8 3 -11 0
-7 -9 3 -8 10 -12 16 -8 6 3 7 1 3 -6 -4 -6 -9 -32 -10 -56 -2 -36 0 -42 11
-33 9 8 13 7 13 -1 0 -7 5 -9 10 -6 6 3 10 -1 10 -9 0 -9 5 -16 10 -16 6 0 10
-6 10 -14 0 -10 7 -13 21 -11 16 3 19 0 13 -17 -4 -15 -3 -18 7 -13 9 6 11 3
6 -8 -4 -11 -1 -17 9 -17 8 0 12 5 9 10 -3 6 -4 10 0 10 3 0 10 -11 15 -25 5
-14 21 -30 35 -37 16 -7 25 -19 25 -34 0 -19 -5 -22 -32 -20 -18 1 -39 -3 -47
-9 -12 -8 -13 -7 -6 4 6 10 4 12 -4 7 -7 -5 -10 -14 -7 -22 3 -8 1 -14 -5 -14
-6 0 -7 -6 -3 -12 6 -10 5 -10 -7 -1 -11 9 -18 8 -32 -2 -13 -9 -15 -14 -5
-17 10 -4 9 -9 -5 -22 -9 -9 -22 -14 -28 -10 -7 4 -9 3 -6 -3 3 -5 -3 -17 -14
-26 -11 -10 -17 -22 -14 -27 3 -5 -4 -7 -15 -5 -11 2 -20 -1 -20 -7 0 -6 -8
-17 -17 -25 -17 -14 -17 -14 0 -9 11 4 16 2 12 -5 -4 -5 -16 -7 -27 -3 -17 5
-20 3 -15 -10 4 -9 3 -16 -1 -16 -4 0 -8 -9 -9 -20 -1 -11 2 -18 7 -15 4 3 6
-4 3 -15 -3 -11 -10 -23 -16 -27 -6 -3 -7 -1 -3 5 4 7 2 12 -3 12 -6 0 -11 -4
-11 -10 0 -5 -5 -9 -11 -7 -6 1 -14 -4 -17 -12 -3 -10 0 -11 9 -5 11 6 12 5 3
-7 -14 -18 -14 -49 0 -49 5 0 2 -6 -9 -13 -14 -11 -15 -16 -5 -22 9 -6 11 -4
5 5 -5 9 -4 11 4 6 7 -5 9 -12 3 -19 -11 -15 -13 -59 -3 -53 4 3 8 -1 8 -9 0
-9 -7 -14 -16 -13 -9 2 -15 -3 -13 -11 3 -12 1 -12 -14 0 -12 9 -15 9 -10 2 5
-9 1 -13 -11 -13 -14 0 -15 -2 -5 -9 18 -11 18 -12 3 -40 -11 -19 -11 -22 0
-16 9 6 11 3 6 -8 -4 -10 -1 -17 6 -17 9 0 9 -2 1 -8 -6 -4 -10 -20 -8 -36 4
-41 -13 -71 -32 -55 -8 6 -17 9 -21 5 -3 -3 -1 -6 7 -6 10 0 10 -3 1 -14 -7
-8 -11 -20 -10 -28 5 -38 -2 -60 -17 -54 -10 4 -13 2 -8 -6 5 -8 2 -9 -10 -5
-10 4 -15 3 -11 -3 3 -6 0 -10 -7 -10 -9 0 -9 -3 -2 -8 7 -5 5 -14 -9 -27 -11
-11 -17 -14 -12 -7 6 11 3 11 -13 1 -11 -7 -18 -18 -15 -24 2 -7 -4 -16 -14
-19 -10 -4 -19 -2 -21 4 -3 7 -9 7 -20 -2 -12 -11 -16 -11 -20 0 -3 10 -8 8
-18 -5 -12 -15 -13 -15 -8 -1 4 11 0 16 -13 15 -10 -1 -21 -6 -24 -10 -3 -5
-9 5 -12 21 l-6 30 -106 0 c-67 0 -105 -4 -105 -11 0 -6 -6 -3 -13 7 -12 16
-13 16 -14 -5 -2 -25 -21 -41 -40 -34 -7 2 -15 0 -19 -6 -4 -6 -12 -5 -22 3
-9 7 -13 8 -9 2 4 -7 -1 -18 -10 -25 -15 -12 -16 -12 -9 6 5 15 4 17 -4 9 -9
-9 -9 -17 -1 -31 8 -15 7 -20 -4 -20 -8 0 -12 5 -9 11 3 6 -1 3 -9 -7 -11 -14
-16 -15 -21 -5 -3 7 -4 3 -2 -9 3 -15 -1 -23 -11 -23 -8 0 -12 -4 -9 -9 3 -5
-2 -8 -12 -7 -14 1 -18 -9 -20 -52 -3 -49 -2 -52 21 -52 19 0 26 -7 31 -31 3
-17 10 -28 16 -24 11 7 42 -8 41 -18 -3 -23 0 -37 10 -37 5 0 7 6 4 13 -4 6 0
4 8 -5 8 -10 17 -15 21 -11 4 4 4 0 0 -10 -4 -12 -1 -17 10 -17 9 0 16 -5 16
-11 0 -5 5 -7 11 -3 7 4 10 1 7 -7 -7 -22 27 -53 48 -41 23 13 57 3 50 -15 -4
-9 -2 -11 6 -7 7 5 9 2 5 -9 -4 -11 -2 -14 7 -11 7 3 17 -3 20 -13 7 -17 8
-17 22 1 8 12 14 14 14 7 0 -7 6 -11 15 -8 8 4 17 1 21 -5 5 -7 2 -8 -7 -4 -8
4 -6 1 3 -7 10 -8 15 -16 12 -20 -8 -8 27 -16 56 -13 14 1 30 -2 37 -6 7 -6
14 -4 19 3 5 8 3 9 -6 4 -9 -6 -11 -4 -6 4 6 9 13 8 29 -6 11 -10 17 -13 14
-7 -4 7 3 12 18 12 14 0 22 -4 19 -9 -3 -5 2 -9 10 -9 10 0 13 -6 9 -17 -5
-13 -2 -15 11 -10 10 4 15 3 11 -3 -4 -6 14 -8 47 -5 32 2 58 -1 67 -8 10 -8
13 -8 8 -1 -4 7 0 14 8 18 8 3 17 0 21 -6 5 -7 2 -8 -6 -3 -9 5 -11 4 -6 -4 6
-8 12 -9 20 -2 9 7 17 7 26 -2 10 -10 12 -8 6 7 -5 15 -4 16 7 8 24 -20 66
-22 77 -4 5 9 10 12 10 5 0 -7 12 -10 30 -8 17 2 28 0 26 -4 -3 -4 6 -6 19 -3
15 2 22 9 18 16 -5 7 -2 7 8 -1 9 -8 35 -10 68 -8 28 3 50 1 47 -4 -3 -4 6 -6
19 -3 15 2 22 9 18 16 -5 7 -2 7 8 -1 8 -6 35 -10 59 -8 25 1 51 -2 59 -9 12
-9 13 -8 8 8 -6 15 -5 16 6 8 24 -20 66 -22 77 -4 7 13 9 13 10 3 0 -8 3 -11
6 -8 4 3 16 2 27 -4 14 -8 18 -8 13 0 -10 15 7 14 23 -1 9 -8 11 -8 8 -2 -9
15 20 27 29 12 5 -7 2 -8 -6 -3 -9 6 -11 4 -5 -4 5 -9 10 -10 18 -2 13 13 31
15 23 2 -3 -4 6 -6 19 -3 15 2 22 9 18 16 -5 7 -2 7 8 -1 9 -7 35 -10 64 -8
29 2 55 -1 64 -8 10 -8 13 -8 8 -1 -4 7 0 14 8 18 8 3 17 0 21 -6 5 -7 2 -8
-6 -3 -9 5 -11 4 -6 -4 6 -8 12 -9 20 -2 9 7 17 7 26 -2 10 -10 12 -8 6 7 -5
15 -4 16 7 8 24 -20 66 -22 77 -4 5 9 10 12 10 5 0 -7 12 -10 30 -8 17 2 29 1
26 -3 -2 -4 6 -7 19 -7 18 0 21 3 13 13 -8 9 -7 11 6 6 12 -5 15 -2 9 12 -4
12 -3 15 5 10 7 -4 12 -3 12 3 0 17 38 33 46 19 4 -7 3 -8 -4 -4 -7 4 -12 2
-12 -3 0 -14 6 -14 30 2 17 10 22 9 29 -1 6 -11 10 -10 15 4 6 15 8 15 24 1
17 -15 19 -15 36 1 16 16 17 16 10 -3 -7 -20 -7 -20 9 0 12 15 13 23 4 34 -8
10 -8 12 -1 8 6 -3 20 0 30 7 10 8 26 11 34 7 13 -6 23 -7 46 -2 4 0 1 7 -5
15 -9 11 -9 16 0 22 8 5 10 3 5 -7 -4 -8 0 -5 8 5 9 11 19 17 22 13 4 -3 16
-1 28 5 19 10 20 10 7 -5 -8 -10 -9 -17 -3 -17 6 0 14 9 17 20 4 11 10 18 15
15 4 -3 10 2 13 9 3 8 1 17 -6 20 -7 3 -1 4 13 3 18 -1 28 5 35 20 5 13 16 22
25 20 8 -1 15 4 16 11 1 6 3 15 4 20 1 4 2 10 1 14 0 4 7 4 16 1 12 -5 14 -3
8 7 -6 10 -3 12 13 8 12 -4 22 -2 22 3 0 5 -6 9 -12 10 -7 0 -4 4 7 9 11 5 15
9 8 9 -8 1 -10 8 -4 22 4 12 4 41 1 65 -4 24 -3 41 2 38 4 -3 8 0 8 5 0 6 -6
11 -12 11 -9 0 -8 4 2 10 13 8 12 10 -3 10 -11 0 -15 4 -11 12 5 8 0 9 -14 6
-12 -4 -20 -3 -17 1 2 5 -5 18 -16 30 -16 17 -24 19 -34 11 -10 -8 -15 -8 -21
1 -4 8 -3 9 4 5 7 -4 12 -2 12 3 0 14 -13 14 -28 -1 -8 -8 -15 -3 -29 20 -10
18 -22 30 -28 28 -5 -2 -18 1 -29 6 -13 7 -16 7 -12 -1 9 -14 4 -14 -29 -1
-23 9 -26 8 -22 -4 4 -10 1 -13 -8 -9 -8 3 -12 10 -8 17 3 6 1 6 -8 -1 -16
-16 -33 -17 -23 -2 4 8 0 8 -15 0 -16 -9 -21 -9 -21 1 -1 8 -5 7 -14 -5 -15
-20 -30 -23 -21 -5 4 7 -1 4 -9 -7 -9 -11 -15 -24 -12 -30 2 -5 -13 -11 -33
-12 -25 -2 -32 1 -21 7 8 5 10 10 4 10 -6 0 -14 -3 -18 -7 -11 -12 -48 -14
-61 -3 -6 5 -14 7 -18 4 -3 -3 -3 4 0 17 5 17 3 20 -7 14 -10 -6 -12 -4 -7 7
4 12 1 14 -15 10 -12 -3 -19 -1 -16 4 5 11 -38 54 -46 46 -7 -6 -9 18 -6 66 1
18 -3 32 -10 32 -6 0 -8 -5 -4 -11 4 -7 -2 -7 -17 1 -30 16 -39 25 -17 17 12
-4 15 -2 11 8 -3 8 -10 12 -16 8 -6 -4 -8 0 -4 9 3 9 0 21 -6 28 -9 10 -9 11
0 6 18 -10 21 17 4 44 -15 24 -15 24 3 10 18 -14 19 -14 7 8 -6 12 -8 22 -3
22 4 0 8 9 8 19 0 14 -4 17 -12 10 -9 -8 -11 -4 -7 13 3 13 1 19 -4 13 -5 -7
-16 -2 -30 12 -17 18 -19 23 -7 23 14 0 14 2 0 16 -14 14 -14 34 0 34 3 0 2
-5 -2 -12 -4 -7 -3 -8 4 -4 6 4 9 13 6 21 -4 8 -10 12 -15 9 -5 -3 -6 2 -3 10
3 9 11 13 18 9 6 -4 3 6 -8 21 -10 16 -14 26 -8 22 5 -3 13 1 16 10 3 8 2 12
-4 9 -6 -3 -10 -1 -10 5 0 6 -11 15 -25 20 -20 8 -24 15 -21 35 3 13 0 28 -6
31 -7 5 -4 12 8 22 14 11 15 13 3 9 -11 -3 -31 8 -54 29 -21 19 -41 34 -46 34
-13 0 -11 18 4 24 6 3 3 4 -8 3 -11 -1 -19 3 -18 10 2 8 -4 10 -14 6 -11 -4
-14 -3 -9 5 4 7 1 12 -7 12 -10 0 -14 7 -10 23 4 17 2 19 -5 8 -9 -12 -13 -12
-26 -2 -9 8 -16 22 -16 33 0 10 -4 16 -10 13 -5 -3 -10 -1 -10 4 0 6 -7 11
-16 11 -8 0 -13 -4 -10 -9 4 -5 -5 -6 -20 -2 -15 4 -31 17 -35 28 -6 17 -5 21
6 17 8 -3 23 11 39 38 26 43 35 46 15 5 -7 -16 -4 -14 11 6 12 15 27 24 32 21
6 -4 8 -3 5 3 -4 6 0 19 8 29 13 17 16 17 26 4 9 -13 10 -13 6 2 -3 9 1 22 9
28 8 7 14 20 15 29 0 10 2 11 6 4 7 -18 20 -16 27 3 3 8 2 12 -4 9 -6 -3 -10
-1 -10 4 0 6 8 11 18 11 11 0 13 3 5 8 -7 4 -10 23 -8 45 1 20 0 35 -4 33 -4
-3 -7 15 -7 39 1 24 5 40 10 37 5 -3 6 2 3 12 -4 10 -7 22 -7 27 0 6 -6 7 -12
3 -9 -6 -9 -3 0 9 12 14 11 16 -6 12 -12 -2 -27 4 -34 13 -10 12 -10 14 0 8 6
-4 12 -2 12 3 0 6 -7 11 -15 11 -8 0 -15 5 -15 10 0 6 -6 10 -14 10 -8 0 -17
7 -20 16 -4 10 -2 13 7 8 6 -4 2 3 -10 15 -27 26 -34 27 -26 4 5 -15 3 -14
-10 2 -9 11 -17 28 -17 38 0 10 -8 17 -20 17 -11 0 -20 6 -20 14 0 8 -9 18
-20 21 -11 4 -17 11 -14 17 5 7 2 8 -7 2 -24 -14 -51 -16 -43 -2 5 9 2 9 -9
-1 -12 -9 -17 -10 -17 -2 0 7 -5 9 -10 6 -6 -4 -8 -11 -5 -16 7 -10 -24 -1
-42 13 -7 5 -14 5 -18 -2 -5 -8 -11 -7 -23 2 -13 11 -14 11 -8 -1z m87 -160
c7 12 9 12 9 0 0 -7 12 -25 26 -38 21 -19 29 -22 35 -11 7 10 9 10 9 -2 0 -9
3 -11 8 -5 9 13 35 18 27 5 -3 -5 -2 -10 4 -10 5 0 9 -20 7 -45 -2 -39 -1 -43
13 -32 12 9 13 9 7 0 -4 -8 -2 -13 7 -13 8 0 21 -8 28 -17 12 -14 12 -16 0 -8
-11 6 -13 4 -8 -8 3 -10 2 -17 -4 -17 -6 0 -7 -5 -3 -12 4 -7 3 -8 -5 -4 -6 4
-8 13 -5 19 4 7 0 5 -9 -3 -13 -13 -22 -47 -18 -72 2 -17 1 -23 -6 -23 -30 -2
-50 -18 -49 -38 1 -13 -4 -21 -12 -19 -7 1 -20 -4 -28 -12 -17 -17 -19 -30 -2
-20 7 4 8 3 4 -5 -4 -6 -11 -9 -16 -6 -4 3 -10 0 -12 -7 -5 -15 -38 13 -38 32
0 6 -4 8 -10 5 -5 -3 -10 -2 -10 4 0 5 3 11 8 14 4 2 1 2 -6 0 -20 -5 -43 22
-30 35 8 8 5 9 -11 5 -13 -3 -21 -1 -21 6 0 7 -3 10 -7 8 -5 -3 -9 16 -10 41
-2 25 -8 50 -14 56 -9 8 -10 8 -5 -1 11 -19 -2 -16 -25 6 -15 13 -17 21 -9 26
9 6 9 10 -1 16 -8 5 -9 9 -3 9 6 0 10 11 9 24 -3 24 8 28 34 12 9 -6 12 -5 7
2 -3 6 -2 13 4 17 6 4 8 11 5 16 -4 5 -1 9 5 9 6 0 9 4 6 9 -5 8 35 7 51 -1 8
-5 43 26 43 37 0 24 2 29 7 16 5 -11 7 -11 14 0z m289 -315 c0 -3 -4 -8 -10
-11 -5 -3 -10 -1 -10 4 0 6 5 11 10 11 6 0 10 -2 10 -4z m-306 -397 c-4 -8 1
-9 16 -4 19 6 22 4 17 -9 -4 -10 -3 -14 2 -11 5 3 12 1 16 -5 3 -5 1 -10 -5
-10 -6 0 -8 -5 -3 -12 4 -7 6 -20 5 -29 -3 -18 24 -33 41 -22 7 3 9 3 5 -2 -4
-4 -2 -15 5 -23 9 -13 9 -14 0 -8 -7 4 -13 3 -13 -3 0 -5 5 -13 10 -16 7 -4 7
-12 2 -18 -24 -33 1 -96 34 -83 9 4 12 2 8 -5 -4 -6 0 -15 7 -20 11 -7 11 -9
1 -9 -10 0 -10 -5 -1 -21 8 -15 8 -19 0 -15 -15 10 -14 -7 2 -23 10 -11 9 -12
-2 -6 -11 6 -13 4 -8 -9 4 -10 7 -24 7 -32 0 -9 5 -12 11 -9 6 4 19 -2 30 -14
12 -13 15 -21 7 -21 -9 0 -9 -3 0 -12 7 -7 8 -17 1 -30 -7 -13 -6 -18 3 -18 9
0 9 -3 -2 -10 -8 -5 -10 -10 -5 -10 6 0 3 -5 -5 -10 -13 -8 -12 -10 4 -10 15
0 16 -3 7 -14 -8 -9 -8 -16 -2 -20 7 -5 7 -15 1 -31 -7 -18 -6 -25 3 -26 9 0
9 -2 -1 -6 -6 -2 -9 -10 -6 -15 4 -7 2 -8 -4 -4 -6 3 -15 -2 -21 -11 -8 -14
-11 -15 -11 -3 -1 10 -4 8 -9 -5 -5 -12 -4 -26 3 -34 9 -12 7 -13 -8 -7 -20 7
-20 7 0 -15 10 -12 13 -19 7 -15 -16 9 -17 -10 -2 -19 6 -5 4 -12 -8 -21 -17
-13 -17 -14 1 -7 19 6 19 6 0 -13 -12 -13 -22 -16 -26 -10 -5 7 -8 6 -8 -2 0
-7 -4 -11 -9 -8 -11 7 -9 -13 3 -33 6 -9 5 -12 -2 -7 -7 4 -10 -3 -7 -23 3
-24 0 -29 -12 -24 -12 5 -14 3 -8 -8 8 -12 6 -12 -8 0 -14 11 -17 11 -17 0 0
-9 -3 -10 -11 -2 -7 7 -21 8 -40 3 -20 -6 -27 -5 -23 2 4 6 -1 8 -13 4 -16 -5
-18 -1 -18 39 1 29 -3 46 -12 50 -8 2 -11 11 -8 17 4 7 -1 4 -11 -7 -16 -20
-16 -20 -11 3 3 12 1 22 -5 22 -5 0 -6 10 -3 21 6 17 4 20 -6 13 -10 -6 -9 0
3 17 16 24 16 27 0 44 -9 10 -11 15 -5 11 9 -5 11 -2 7 9 -4 9 -9 13 -12 11
-3 -3 -11 -1 -19 5 -10 9 -13 8 -13 -1 0 -8 -3 -10 -6 -7 -4 4 -1 13 6 22 11
13 10 14 -5 9 -14 -6 -16 -4 -9 7 13 21 14 39 1 39 -7 0 -5 5 3 10 11 7 11 10
2 10 -7 0 -10 5 -7 10 4 6 12 7 18 3 7 -4 6 0 -2 10 -7 9 -10 17 -5 17 5 0 2
5 -6 10 -8 5 -10 10 -4 10 14 0 14 30 0 30 -7 0 -7 3 -1 8 14 10 17 32 4 32
-5 0 -7 5 -4 10 4 6 11 7 17 4 7 -5 9 -1 5 9 -4 11 -2 14 9 10 7 -3 14 0 14 7
0 6 4 9 9 6 13 -9 20 16 10 36 -6 10 -5 19 1 23 7 5 8 11 1 19 -5 6 -8 21 -6
31 2 11 4 24 4 29 1 4 10 6 20 3 21 -5 48 37 30 48 -5 4 -7 11 -4 16 4 5 0 9
-7 9 -9 0 -10 3 -2 8 6 4 10 16 8 26 -3 20 19 49 30 39 3 -4 6 1 6 10 0 9 4
19 10 22 6 4 7 -1 4 -12 -5 -14 -4 -15 4 -4 12 16 4 44 -9 35 -5 -3 -5 6 1 20
5 14 7 26 4 26 -3 0 -2 5 1 10 3 6 8 10 11 10 3 0 2 -5 -2 -11z m-334 -417 c0
-13 2 -14 9 -4 6 10 10 8 14 -9 3 -13 1 -29 -5 -36 -7 -9 -7 -13 1 -13 6 0 11
-5 11 -11 0 -5 -6 -7 -12 -3 -9 5 -9 2 1 -9 7 -9 10 -17 5 -17 -7 0 -9 -139
-4 -242 0 -4 7 -4 17 -1 12 5 14 3 8 -8 -7 -11 -5 -11 10 1 11 9 16 10 11 3
-4 -8 -2 -13 5 -13 8 0 8 -4 -2 -16 -10 -13 -10 -17 2 -25 12 -8 12 -10 0 -18
-8 -5 -10 -14 -6 -21 5 -9 4 -11 -3 -6 -7 4 -17 4 -24 0 -16 -10 -58 -12 -52
-2 3 4 0 8 -6 8 -7 0 -9 7 -6 16 3 8 2 12 -4 9 -6 -3 -10 0 -10 7 0 9 -15 13
-50 12 -27 -1 -47 3 -44 7 3 5 11 7 17 3 7 -3 -1 6 -16 20 -16 15 -33 24 -38
21 -5 -4 -9 0 -10 7 0 7 -2 21 -4 30 -3 14 0 16 15 8 13 -7 21 -7 26 2 5 7 2
9 -7 4 -8 -4 -3 2 11 13 17 14 20 21 10 21 -12 0 -11 3 3 11 9 5 20 8 25 6 4
-3 13 1 20 9 7 8 8 14 2 14 -5 0 -10 5 -10 11 0 5 5 7 11 3 8 -5 9 -2 1 12
-11 20 1 54 19 54 6 0 7 -5 3 -12 -4 -7 -3 -8 5 -4 6 4 8 12 5 18 -5 8 -1 9
10 5 12 -5 15 -3 9 6 -13 20 -14 49 -2 41 8 -4 8 0 0 15 -9 16 -9 21 1 21 10
0 10 2 1 8 -15 10 -9 48 7 44 8 -2 10 3 6 13 -3 9 -2 13 4 10 6 -3 10 -14 10
-23z m723 3 c-3 11 -3 17 2 13 13 -12 14 -58 2 -58 -7 0 -6 -5 3 -11 12 -9 13
-12 1 -16 -10 -4 -10 -7 -1 -13 9 -6 9 -13 1 -28 -9 -17 -8 -22 9 -27 11 -3
20 -11 20 -16 0 -6 5 -7 10 -4 6 3 10 -1 10 -10 0 -10 5 -13 13 -9 8 5 8 2 -2
-9 -11 -14 -11 -20 -1 -32 7 -9 10 -18 6 -22 -3 -3 -6 -1 -6 5 0 7 -5 12 -11
12 -8 0 -8 -4 1 -14 6 -8 17 -13 24 -10 13 5 38 -18 35 -32 -4 -21 2 -25 18
-13 14 12 16 12 8 0 -6 -11 -4 -13 8 -8 12 4 14 1 11 -16 -3 -12 -6 -28 -6
-34 -1 -9 -5 -10 -15 -2 -9 9 -13 8 -13 0 0 -7 -5 -9 -12 -5 -6 4 -8 3 -4 -4
3 -6 -4 -20 -16 -32 -19 -18 -24 -19 -33 -6 -10 13 -13 12 -23 -2 -7 -9 -11
-12 -8 -6 3 6 -1 11 -9 11 -8 0 -12 -4 -9 -8 2 -4 -1 -11 -7 -14 -5 -4 -8 -14
-5 -22 3 -8 1 -11 -4 -8 -6 3 -10 0 -10 -7 0 -8 -3 -9 -8 -3 -4 6 -18 10 -32
10 -30 -1 -48 21 -44 55 1 14 3 28 3 32 1 5 7 7 14 5 6 -1 11 4 9 11 -2 9 3
10 16 3 15 -8 17 -5 17 25 -1 18 -4 36 -7 40 -4 3 -3 17 2 30 7 17 6 24 -3 25
-6 0 -3 4 8 9 11 5 14 9 8 9 -7 1 -13 8 -13 17 0 9 5 13 13 9 6 -4 5 -1 -3 7
-14 12 -24 92 -10 83 3 -2 6 5 6 15 0 10 -4 16 -8 14 -4 -3 -8 0 -8 5 0 6 6
11 13 11 8 0 7 4 -3 10 -12 8 -12 10 -1 10 8 0 12 3 8 6 -3 3 -1 12 6 19 9 10
14 9 24 -4 12 -14 12 -14 6 4z m-1392 -454 c6 10 9 10 9 2 0 -7 5 -13 11 -13
5 0 7 6 3 13 -5 7 0 6 11 -3 11 -9 16 -10 11 -2 -4 7 -1 12 8 12 9 0 16 -6 16
-12 0 -9 4 -8 10 2 8 13 10 13 10 0 0 -11 3 -11 12 -2 16 16 31 15 22 0 -5 -9
-2 -9 9 1 9 7 17 9 17 3 0 -5 9 -12 20 -15 11 -3 20 -9 19 -14 -4 -21 2 -31
19 -29 9 0 16 -4 15 -11 -3 -13 23 -36 42 -39 8 -1 11 4 8 12 -3 8 0 14 7 14
7 0 10 8 7 20 -4 17 -2 18 14 9 14 -7 19 -6 19 3 0 9 3 9 10 -2 5 -8 10 -10
10 -4 0 8 11 9 35 4 29 -7 35 -5 35 9 1 15 1 15 10 0 6 -11 18 -15 36 -11 19
3 25 1 20 -7 -4 -6 -1 -11 8 -11 9 0 16 -5 16 -11 0 -5 -6 -7 -12 -3 -9 5 -8
2 1 -9 10 -13 17 -15 27 -6 10 8 14 8 14 0 0 -6 5 -11 11 -11 5 0 7 5 4 10
-11 17 19 6 38 -14 9 -10 17 -21 17 -24 0 -2 -8 1 -17 9 -17 12 -17 12 -1 -5
11 -13 30 -18 65 -18 26 0 42 -2 35 -5 -10 -4 -8 -8 5 -19 13 -9 14 -13 4 -14
-11 0 -11 -3 0 -17 11 -13 11 -17 1 -20 -6 -3 -10 -9 -7 -13 3 -5 0 -12 -6
-16 -8 -4 -9 -3 -5 4 4 7 2 12 -3 12 -6 0 -11 -6 -11 -12 0 -9 -4 -8 -10 2 -6
10 -10 11 -10 3 0 -7 -5 -13 -11 -13 -5 0 -8 4 -5 9 4 5 -4 7 -16 3 -14 -3
-19 -2 -14 6 4 7 2 12 -4 12 -6 0 -8 5 -5 10 3 6 -1 10 -10 10 -9 0 -14 4 -11
8 3 5 -8 8 -24 8 -16 0 -27 -3 -24 -8 3 -4 0 -8 -5 -8 -6 0 -11 5 -11 10 0 7
-7 7 -21 -1 -17 -9 -23 -8 -30 2 -7 11 -9 11 -9 -1 0 -13 -1 -13 -10 0 -9 13
-10 13 -10 0 0 -13 -1 -13 -10 0 -9 13 -10 13 -10 0 0 -12 -2 -12 -9 -1 -6 9
-10 10 -16 2 -5 -9 -10 -9 -20 -1 -10 8 -19 8 -34 0 -16 -8 -21 -8 -21 1 0 8
-4 8 -15 -1 -10 -9 -15 -9 -15 -1 0 6 -5 11 -11 11 -5 0 -7 -4 -4 -10 3 -6 -1
-7 -9 -4 -9 3 -16 17 -16 31 0 13 -4 21 -10 18 -5 -3 -10 -2 -10 4 0 6 -11 7
-27 2 -55 -16 -100 1 -116 42 -3 9 -14 17 -22 17 -9 0 -14 -4 -11 -9 7 -11
-13 -9 -31 2 -7 5 -17 5 -23 2 -5 -3 -7 0 -4 8 3 8 0 18 -5 22 -6 3 -9 11 -6
16 4 5 1 9 -4 9 -6 0 -11 -5 -11 -11 0 -5 -5 -7 -11 -3 -6 3 -9 14 -6 24 3 14
0 17 -12 13 -12 -5 -13 -3 -5 7 7 6 24 13 38 13 14 1 27 7 27 12 1 6 4 1 6 -9
4 -15 7 -16 14 -5z m1999 0 c0 11 2 12 9 0 6 -9 11 -10 15 -2 5 8 13 8 28 0
13 -7 18 -7 14 -1 -4 6 2 10 14 9 11 -1 20 -4 20 -8 0 -4 6 -14 14 -22 13 -12
12 -16 -10 -26 -20 -9 -24 -9 -18 1 6 10 4 10 -8 0 -9 -7 -15 -21 -13 -32 3
-14 -1 -16 -17 -12 -16 4 -19 2 -13 -9 8 -12 6 -12 -8 0 -14 11 -17 11 -17 0
0 -11 -2 -11 -10 1 -7 12 -10 12 -10 1 0 -8 -6 -11 -16 -7 -8 3 -12 2 -9 -4 3
-6 1 -10 -4 -10 -6 0 -10 -3 -10 -7 4 -26 -2 -31 -31 -23 -16 5 -30 5 -30 1 0
-9 -31 -8 -47 2 -6 4 -14 0 -17 -9 -3 -8 -10 -12 -16 -9 -6 3 -7 -1 -4 -9 3
-9 1 -16 -6 -16 -6 0 -8 -5 -4 -12 5 -7 3 -8 -7 -2 -23 14 -41 14 -35 -1 3 -9
0 -12 -10 -8 -7 3 -14 10 -14 15 0 6 -7 5 -15 -2 -9 -7 -18 -10 -22 -6 -3 3 0
6 7 6 7 0 11 3 8 6 -4 3 -16 1 -27 -6 -16 -8 -21 -8 -21 1 0 8 -5 7 -17 -2
-13 -11 -17 -11 -20 -2 -4 10 -10 10 -25 2 -16 -8 -23 -8 -29 2 -7 11 -9 11
-9 -1 0 -13 -1 -13 -10 0 -9 13 -10 13 -10 0 0 -13 -1 -13 -10 0 -9 13 -10 13
-10 0 0 -12 -2 -12 -9 -1 -6 9 -10 10 -16 2 -5 -9 -10 -9 -21 0 -12 10 -13 9
-8 -5 4 -10 0 -18 -10 -22 -9 -3 -13 -10 -10 -15 3 -5 -5 -9 -18 -10 -13 0
-30 -2 -39 -4 -9 -1 -23 2 -30 7 -11 7 -9 8 6 4 16 -5 16 -3 -5 14 -14 11 -19
20 -13 20 9 0 10 7 3 25 -7 19 -6 23 5 18 10 -3 15 1 15 12 0 14 3 15 15 5 11
-9 15 -9 15 -1 0 7 5 9 10 6 6 -4 7 -12 4 -18 -3 -7 5 1 20 17 14 16 23 32 21
36 -3 5 4 6 15 3 13 -3 20 0 20 8 0 11 2 11 10 -1 6 -10 10 -11 10 -2 0 14 21
12 32 -3 4 -5 8 0 8 13 0 12 5 22 11 22 5 0 8 4 5 9 -9 14 16 20 38 9 13 -7
16 -7 12 1 -4 6 -2 11 3 11 6 0 11 -4 11 -9 0 -6 12 -6 32 0 41 11 41 11 32
-2 -4 -8 -1 -8 12 -1 24 12 44 5 44 -14 0 -9 5 -12 10 -9 6 3 10 -3 10 -15 0
-20 1 -21 24 -3 13 10 22 21 20 24 -2 4 8 15 23 24 24 16 26 16 20 1 -4 -11
-3 -15 4 -11 5 4 7 14 4 23 -3 11 3 22 16 30 17 11 20 11 13 0 -6 -10 -5 -11
7 -1 12 10 18 10 27 1 9 -9 16 -8 29 5 17 17 19 17 30 0 10 -13 13 -14 13 -2z"/>
<path d="M2075 560 c-3 -5 -1 -10 4 -10 6 0 11 5 11 10 0 6 -2 10 -4 10 -3 0
-8 -4 -11 -10z"/>
<path d="M1630 2079 c0 -5 5 -7 10 -4 6 3 10 8 10 11 0 2 -4 4 -10 4 -5 0 -10
-5 -10 -11z"/>
</g>
</svg>
